<svg width="80" height="80" viewBox="0 0 80 80" fill="none" xmlns="http://www.w3.org/2000/svg">
<path d="M53.4325 7.98749H26.5675C16.3125 7.98749 8 16.305 8 26.5625V53.435C8 63.695 16.3125 72.01 26.5675 72.01H53.43C63.685 72.01 71.9975 63.695 71.9975 53.435V26.5625C72 16.305 63.6875 7.98749 53.4325 7.98749Z" fill="#FFF48D"/>
<path d="M55.24 40.005C55.24 36.5175 57.75 33.34 62.0875 33.34C66.44 33.34 68.9525 36.52 68.9525 40.005C68.9525 43.49 66.4425 46.67 62.0875 46.67C57.7525 46.6725 55.24 43.4925 55.24 40.005ZM65.14 40.005C65.14 38.325 64.02 36.7725 62.0875 36.7725C60.1725 36.7725 59.035 38.325 59.035 40.005C59.035 41.685 60.1725 43.2375 62.0875 43.2375C64.02 43.24 65.14 41.685 65.14 40.005Z" fill="#1D1C1C"/>
<path d="M52.575 42.48C54.02 41.6675 54.8875 40.1125 54.8875 38.3975C54.8875 35.85 53.0275 33.6825 50.1375 33.6825H44.0675V46.3275H47.825V43.095H48.53L50.68 46.3275H55.105L52.575 42.48ZM49.3775 40.1875H47.825V36.61H49.3975C50.41 36.61 51.06 37.4225 51.06 38.3975C51.0575 39.375 50.39 40.1875 49.3775 40.1875Z" fill="#1D1C1C"/>
<path d="M26.915 33.67L24.66 41.2075L22.46 33.67H19.4675L17.25 41.2075L15.015 33.67H11.0475L15.5925 46.2925H18.855L20.965 39.4225L23.055 46.2925H26.3375L30.88 33.67H26.915Z" fill="#1D1C1C"/>
<path d="M36.5675 43.2075C36.565 43.2075 36.5625 43.2075 36.5575 43.2075C35.1525 43.2075 34.1675 42.37 33.7425 41.2575H43.2425H43.29C43.3675 40.84 43.4075 40.4125 43.4075 39.98C43.4075 36.5025 40.905 33.3325 36.565 33.3275V36.7525C37.9775 36.755 38.955 37.5925 39.3725 38.7025H29.8375C29.7625 39.12 29.7225 39.5475 29.7225 39.98C29.7225 43.46 32.2275 46.6325 36.555 46.6325C36.5575 46.6325 36.56 46.6325 36.565 46.6325V43.2075H36.5675Z" fill="#1D1C1C"/>
<path d="M36.5576 46.635C36.7051 46.635 36.8501 46.63 36.9926 46.6225C37.8726 46.5775 38.6701 46.4 39.3801 46.115C40.0926 45.83 40.7151 45.4375 41.2476 44.9625C41.7801 44.4875 42.2176 43.9325 42.5576 43.32C42.8676 42.765 43.0926 42.1625 43.2351 41.5325H39.2551C39.1726 41.7 39.0776 41.86 38.9701 42.01C38.8226 42.215 38.6476 42.4 38.4501 42.56C38.2526 42.72 38.0326 42.855 37.7876 42.96C37.5451 43.065 37.2776 43.1375 36.9901 43.175C36.8501 43.1925 36.7051 43.2025 36.5551 43.2025C35.6601 43.2025 34.9351 42.8625 34.4176 42.3275L31.8301 44.915C32.9851 45.9725 34.5801 46.635 36.5576 46.635Z" fill="url(#paint0_linear_383_3)"/>
<path d="M36.5575 33.3275C32.8875 33.3275 30.5275 35.61 29.895 38.4275H33.8625C34.3375 37.4575 35.27 36.755 36.5575 36.755C37.5825 36.755 38.3775 37.1925 38.9 37.855L41.51 35.245C40.3425 34.075 38.6675 33.3275 36.5575 33.3275Z" fill="url(#paint1_linear_383_3)"/>
<defs>
<linearGradient id="paint0_linear_383_3" x1="41.2332" y1="39.1945" x2="35.3788" y2="46.4471" gradientUnits="userSpaceOnUse">
<stop offset="0.0243" stop-color="#1D1C1C" stop-opacity="0"/>
<stop offset="0.676" stop-color="#1D1C1C"/>
</linearGradient>
<linearGradient id="paint1_linear_383_3" x1="30.9896" y1="40.8196" x2="37.0055" y2="34.8037" gradientUnits="userSpaceOnUse">
<stop offset="0.0243" stop-color="#1D1C1C" stop-opacity="0"/>
<stop offset="0.676" stop-color="#1D1C1C"/>
</linearGradient>
</defs>
</svg>
